<svg width="12" height="12" viewBox="0 0 12 12" fill="none" xmlns="http://www.w3.org/2000/svg">
<g clip-path="url(#clip0_7_475)">
<path d="M6.00001 9.00001C5.93776 9.00001 5.87548 8.97681 5.82716 8.93069L0.0771171 3.43066C-0.0224926 3.3352 -0.0261489 3.17699 0.0693124 3.07715C0.164539 2.9773 0.32272 2.97339 0.422822 3.06934L5.99998 8.40409L11.5771 3.06934C11.6775 2.97388 11.8355 2.9778 11.9307 3.07715C12.0261 3.17699 12.0225 3.3352 11.9229 3.43066L6.17286 8.93069C6.12451 8.97683 6.06226 9.00001 6.00001 9.00001Z" fill="#303C42"/>
<path d="M6.00001 9.00001C5.93776 9.00001 5.87548 8.97681 5.82716 8.93069L0.0771171 3.43066C-0.0224926 3.3352 -0.0261489 3.17699 0.0693124 3.07715C0.164539 2.9773 0.32272 2.97339 0.422822 3.06934L5.99998 8.40409L11.5771 3.06934C11.6775 2.97388 11.8355 2.9778 11.9307 3.07715C12.0261 3.17699 12.0225 3.3352 11.9229 3.43066L6.17286 8.93069C6.12451 8.97683 6.06226 9.00001 6.00001 9.00001Z" fill="url(#paint0_linear_7_475)"/>
</g>
<defs>
<linearGradient id="paint0_linear_7_475" x1="0.510633" y1="2.09992" x2="10.4098" y2="6.71623" gradientUnits="userSpaceOnUse">
<stop stop-color="white" stop-opacity="0.2"/>
<stop offset="1" stop-color="white" stop-opacity="0"/>
</linearGradient>
<clipPath id="clip0_7_475">
<rect width="12" height="12" fill="white"/>
</clipPath>
</defs>
</svg>
