<svg width="40" height="14" viewBox="0 0 40 14" fill="none" xmlns="http://www.w3.org/2000/svg">
<g clip-path="url(#clip0_8_599)">
<path d="M20 3.49982C20.2075 3.49982 20.415 3.52689 20.5761 3.5807L39.7429 9.9974C40.075 10.1088 40.0872 10.2933 39.769 10.4098C39.4515 10.5263 38.9243 10.5309 38.5906 10.4189L20 4.19506L1.40949 10.4189C1.07504 10.5303 0.54847 10.5257 0.231125 10.4098C-0.0870781 10.2933 -0.0748901 10.1088 0.257141 9.9974L19.4238 3.5807C19.585 3.52686 19.7925 3.49982 20 3.49982Z" fill="#969696"/>
<path d="M20 3.49982C20.2075 3.49982 20.415 3.52689 20.5761 3.5807L39.7429 9.9974C40.075 10.1088 40.0872 10.2933 39.769 10.4098C39.4515 10.5263 38.9243 10.5309 38.5906 10.4189L20 4.19506L1.40949 10.4189C1.07504 10.5303 0.548477 10.5257 0.231129 10.4098C-0.0870743 10.2933 -0.0748863 10.1088 0.257145 9.9974L19.4238 3.5807C19.585 3.52686 19.7925 3.49982 20 3.49982Z" fill="#969696"/>
</g>
<defs>
<clipPath id="clip0_8_599">
<rect width="40" height="14" fill="white" transform="translate(40 14) rotate(-180)"/>
</clipPath>
</defs>
</svg>
