<svg width="16" height="16" viewBox="0 0 16 16" fill="none" xmlns="http://www.w3.org/2000/svg">
<path d="M14.4732 13.5266C14.5357 13.5886 14.5853 13.6623 14.6191 13.7436C14.653 13.8248 14.6704 13.912 14.6704 14C14.6704 14.088 14.653 14.1751 14.6191 14.2563C14.5853 14.3376 14.5357 14.4113 14.4732 14.4733C14.4112 14.5358 14.3375 14.5854 14.2563 14.6192C14.175 14.6531 14.0879 14.6705 13.9999 14.6705C13.9119 14.6705 13.8247 14.6531 13.7435 14.6192C13.6623 14.5854 13.5885 14.5358 13.5265 14.4733L7.99988 8.93996L2.47321 14.4733C2.41124 14.5358 2.3375 14.5854 2.25626 14.6192C2.17502 14.6531 2.08789 14.6705 1.99988 14.6705C1.91187 14.6705 1.82473 14.6531 1.74349 14.6192C1.66225 14.5854 1.58852 14.5358 1.52654 14.4733C1.46406 14.4113 1.41446 14.3376 1.38062 14.2563C1.34677 14.1751 1.32935 14.088 1.32935 14C1.32935 13.912 1.34677 13.8248 1.38062 13.7436C1.41446 13.6623 1.46406 13.5886 1.52654 13.5266L7.05988 7.99996L1.52654 2.47329C1.40101 2.34776 1.33048 2.1775 1.33048 1.99996C1.33048 1.91205 1.3478 1.82501 1.38144 1.74379C1.41508 1.66258 1.46439 1.58879 1.52654 1.52663C1.5887 1.46447 1.6625 1.41516 1.74371 1.38152C1.82493 1.34788 1.91197 1.33057 1.99988 1.33057C2.17741 1.33057 2.34768 1.40109 2.47321 1.52663L7.99988 7.05996L13.5265 1.52663C13.6521 1.40109 13.8223 1.33057 13.9999 1.33057C14.1774 1.33057 14.3477 1.40109 14.4732 1.52663C14.5987 1.65216 14.6693 1.82243 14.6693 1.99996C14.6693 2.1775 14.5987 2.34776 14.4732 2.47329L8.93988 7.99996L14.4732 13.5266Z" fill="white"/>
</svg>
