<svg width="16" height="16" viewBox="0 0 16 16" fill="none" xmlns="http://www.w3.org/2000/svg">
<path d="M8.99992 1.16663H6.99992C6.63325 1.16663 6.33325 1.46663 6.33325 1.83329V2.16663H2.99992C2.63325 2.16663 2.33325 2.46663 2.33325 2.83329V3.49996C2.33325 3.86663 2.63325 4.16663 2.99992 4.16663H3.00992L3.31325 13.8633C3.32992 14.4066 3.76992 14.8333 4.31325 14.8333H11.6866C12.2299 14.8333 12.6699 14.4066 12.6866 13.8633L12.9899 4.16663H12.9999C13.3666 4.16663 13.6666 3.86663 13.6666 3.49996V2.83329C13.6666 2.46663 13.3666 2.16663 12.9999 2.16663H9.66659V1.83329C9.66659 1.46663 9.36659 1.16663 8.99992 1.16663ZM6.99992 1.83329H8.99992V2.16663H6.99992V1.83329ZM12.0199 13.8433C12.0133 14.0233 11.8666 14.1666 11.6866 14.1666H4.31325C4.13325 14.1666 3.98659 14.0233 3.97992 13.8433L3.67659 4.16663H12.3233L12.0199 13.8433ZM12.9999 2.83329V3.49996H12.6666H3.33325H2.99992V2.83329H6.66659H9.33325H12.9999Z" fill="#5693E1"/>
<path d="M5.33333 13.1666C5.51667 13.1666 5.66667 13.0166 5.66667 12.8333V5.49996C5.66667 5.31663 5.51667 5.16663 5.33333 5.16663C5.15 5.16663 5 5.31663 5 5.49996V12.8333C5 13.0166 5.15 13.1666 5.33333 13.1666Z" fill="#5693E1"/>
<path d="M7.99984 13.1666C8.18317 13.1666 8.33317 13.0166 8.33317 12.8333V5.49996C8.33317 5.31663 8.18317 5.16663 7.99984 5.16663C7.8165 5.16663 7.6665 5.31663 7.6665 5.49996V12.8333C7.6665 13.0166 7.8165 13.1666 7.99984 13.1666Z" fill="#5693E1"/>
<path d="M10.6666 13.1666C10.8499 13.1666 10.9999 13.0166 10.9999 12.8333V5.49996C10.9999 5.31663 10.8499 5.16663 10.6666 5.16663C10.4833 5.16663 10.3333 5.31663 10.3333 5.49996V12.8333C10.3333 13.0166 10.4833 13.1666 10.6666 13.1666Z" fill="#5693E1"/>
</svg>
