<svg width="16" height="16" viewBox="0 0 16 16" fill="none" xmlns="http://www.w3.org/2000/svg">
<g clip-path="url(#clip0_5_206)">
<path d="M15.9938 2.98898C15.9942 2.79374 15.9559 2.60035 15.8812 2.41998C15.8064 2.23962 15.6967 2.07585 15.5583 1.93813L14.0627 0.44258C13.784 0.164034 13.406 0.00756836 13.0119 0.00756836C12.6178 0.00756836 12.2398 0.164034 11.9611 0.44258L1.1117 11.2919L1.08883 11.3122C1.039 11.3621 1.00032 11.4221 0.975342 11.4881V11.4938C0.965748 11.5201 0.958535 11.5472 0.953788 11.5748L0.0322639 15.0225C0.0016687 15.137 -0.00214628 15.257 0.0211146 15.3732C0.0443755 15.4894 0.0940875 15.5987 0.166397 15.6927C0.238707 15.7866 0.331673 15.8626 0.438088 15.9148C0.544504 15.967 0.661511 15.994 0.78004 15.9937C0.84673 15.9938 0.913139 15.985 0.977541 15.9677L4.51056 15.0273V15.0242C4.56844 15.0031 4.62185 14.9713 4.66804 14.9305L4.68123 14.9178L4.69047 14.9094L4.69883 14.9002L15.5592 4.03982C15.6974 3.90204 15.807 3.73823 15.8816 3.55787C15.9562 3.37751 15.9943 3.18416 15.9938 2.98898ZM4.22025 13.6989L2.27647 11.8044L11.2287 2.8535L13.172 4.74801L4.22025 13.6989ZM1.80097 12.9986L3.02601 14.1933L1.36419 14.6358L1.80097 12.9986ZM14.7186 3.20011L14.0108 3.9083L12.0671 2.01379L12.7994 1.28141C12.8271 1.25364 12.8601 1.23161 12.8963 1.21657C12.9325 1.20154 12.9714 1.1938 13.0106 1.1938C13.0498 1.1938 13.0886 1.20154 13.1249 1.21657C13.1611 1.23161 13.194 1.25364 13.2217 1.28141L14.7173 2.77696C14.745 2.80463 14.767 2.8375 14.7821 2.87369C14.7971 2.90988 14.8048 2.94869 14.8048 2.98788C14.8048 3.02707 14.7971 3.06587 14.7821 3.10206C14.767 3.13826 14.745 3.17113 14.7173 3.19879L14.7186 3.20011Z" fill="#5693E1"/>
</g>
<defs>
<clipPath id="clip0_5_206">
<rect width="16" height="16" fill="white"/>
</clipPath>
</defs>
</svg>
