<svg width="16" height="16" viewBox="0 0 16 16" fill="none" xmlns="http://www.w3.org/2000/svg">
<g clip-path="url(#clip0_79_973)">
<path d="M15.4224 15.4225C14.6523 16.1925 13.3993 16.1925 12.6293 15.4225L5.61478 8.40802C5.61466 8.40789 5.61453 8.40777 5.61441 8.40764C5.61428 8.40752 5.61416 8.40736 5.61403 8.40724L3.15256 5.94577C2.56909 5.88761 2.02806 5.63233 1.60784 5.21221C0.01825 3.62255 0 0.596802 0 0.46877C0 0.209864 0.209875 -1.14441e-05 0.468781 -1.14441e-05C0.596781 -1.14441e-05 3.62253 0.0182705 5.21219 1.60793C5.63231 2.02802 5.88756 2.56902 5.94584 3.15246L15.4225 12.6292C16.1925 13.3993 16.1925 14.6524 15.4224 15.4225ZM4.54925 2.2709C3.57569 1.29733 1.81856 1.03449 0.963031 0.963645C1.03291 1.81836 1.29431 3.57268 2.27081 4.54924C2.57516 4.85352 2.97972 5.02111 3.41003 5.02111C3.84034 5.02111 4.245 4.85355 4.54925 4.54927C4.85353 4.24493 5.02116 3.84036 5.02116 3.41005C5.02116 2.97971 4.85356 2.57514 4.54925 2.2709ZM5.79031 4.32283C5.66403 4.65252 5.46928 4.95514 5.21222 5.21224C4.95509 5.4693 4.6525 5.66399 4.32288 5.79024L5.94591 7.41321L7.41328 5.94583L5.79031 4.32283ZM14.7596 13.2922L8.07622 6.6088L6.60884 8.07614L13.2922 14.7595C13.6968 15.164 14.3551 15.164 14.7595 14.7595C15.1641 14.355 15.1641 13.6967 14.7596 13.2922Z" fill="black"/>
</g>
<defs>
<clipPath id="clip0_79_973">
<rect width="16" height="16" fill="white" transform="matrix(1 0 0 -1 0 16)"/>
</clipPath>
</defs>
</svg>
