<svg width="14" height="40" viewBox="0 0 14 40" fill="none" xmlns="http://www.w3.org/2000/svg">
<g clip-path="url(#clip0_8_599)">
<path d="M10.5001 20C10.5001 20.2075 10.473 20.415 10.4192 20.5761L4.00247 39.7429C3.8911 40.075 3.70653 40.0872 3.59005 39.769C3.47356 39.4515 3.469 38.9243 3.58094 38.5906L9.80481 20L3.58094 1.40949C3.46957 1.07504 3.47414 0.54847 3.59005 0.231125C3.70653 -0.0870781 3.8911 -0.0748901 4.00247 0.257141L10.4192 19.4238C10.473 19.585 10.5001 19.7925 10.5001 20Z" fill="#CFCFCF"/>
<path d="M10.5001 20C10.5001 20.2075 10.473 20.415 10.4192 20.5761L4.00247 39.7429C3.8911 40.075 3.70653 40.0872 3.59005 39.769C3.47356 39.4515 3.469 38.9243 3.58094 38.5906L9.80481 20L3.58094 1.40949C3.46957 1.07504 3.47414 0.548477 3.59005 0.231129C3.70653 -0.0870743 3.8911 -0.0748863 4.00247 0.257145L10.4192 19.4238C10.473 19.585 10.5001 19.7925 10.5001 20Z" fill="#CFCFCF"/>
</g>
<defs>
<clipPath id="clip0_8_599">
<rect width="40" height="14" fill="white" transform="translate(0 40) rotate(-90)"/>
</clipPath>
</defs>
</svg>
