<svg width="16" height="16" viewBox="0 0 16 16" fill="none" xmlns="http://www.w3.org/2000/svg">
<path d="M3.22996 3.73004H3.20746L5.58496 1.35254C5.67098 1.25727 5.71707 1.13258 5.71368 1.00427C5.7103 0.875966 5.6577 0.753875 5.56678 0.663278C5.47586 0.57268 5.35359 0.520517 5.22527 0.517586C5.09695 0.514656 4.97242 0.561185 4.87746 0.647537L1.64746 3.87754C1.5876 3.93451 1.5428 4.00544 1.51706 4.08397C1.49132 4.1625 1.48545 4.24618 1.49996 4.32754C1.52196 4.42192 1.56953 4.50842 1.63746 4.57754L4.87746 7.81504C4.9708 7.90893 5.09757 7.96198 5.22996 7.96254C5.32928 7.96311 5.42651 7.9341 5.50927 7.8792C5.59203 7.8243 5.65656 7.746 5.69465 7.65428C5.73273 7.56256 5.74264 7.46157 5.7231 7.3642C5.70357 7.26682 5.65548 7.17747 5.58496 7.10754L3.20746 4.73004C5.93412 4.72738 8.55019 5.80783 10.4803 7.73376C12.4105 9.65968 13.4966 12.2734 13.5 15C13.5 15.1326 13.5526 15.2598 13.6464 15.3536C13.7402 15.4474 13.8674 15.5 14 15.5C14.1326 15.5 14.2597 15.4474 14.3535 15.3536C14.4473 15.2598 14.5 15.1326 14.5 15C14.4967 12.0121 13.3082 9.14742 11.1954 7.0346C9.08258 4.92178 6.21794 3.73335 3.22996 3.73004Z" fill="black"/>
</svg>
