<svg width="16" height="16" viewBox="0 0 16 16" fill="none" xmlns="http://www.w3.org/2000/svg">
<g clip-path="url(#clip0_79_1015)">
<path d="M15.4909 14.0185H8.05226L15.1551 6.91565C15.7173 6.35339 15.7173 5.43854 15.1551 4.87627L11.6637 1.38493C11.1015 0.822671 10.1866 0.822725 9.62435 1.38493L0.635044 10.3743C0.362721 10.6467 0.212687 11.0088 0.212687 11.394C0.212687 11.7792 0.362721 12.1413 0.635044 12.4137L2.23989 14.0185H0.509091C0.227987 14.0185 0 14.2465 0 14.5276C0 14.8088 0.227933 15.0367 0.509091 15.0367H15.4909C15.772 15.0367 16 14.8088 16 14.5276C16 14.2465 15.7721 14.0185 15.4909 14.0185ZM10.3443 2.10488C10.5096 1.93955 10.7787 1.93965 10.9438 2.10488L14.4351 5.59622C14.5152 5.67627 14.5593 5.78272 14.5593 5.89602C14.5593 6.0092 14.5152 6.11571 14.4351 6.19576L8.5823 12.0485L4.49147 7.9577L10.3443 2.10488ZM6.61236 14.0185H3.67978L1.35499 11.6937C1.18971 11.5284 1.18971 11.2595 1.35499 11.0942L3.77158 8.67765L7.86241 12.7685L6.61236 14.0185Z" fill="black"/>
</g>
<defs>
<clipPath id="clip0_79_1015">
<rect width="16" height="16" fill="white"/>
</clipPath>
</defs>
</svg>
