<svg width="16" height="16" viewBox="0 0 16 16" fill="none" xmlns="http://www.w3.org/2000/svg">
<g clip-path="url(#clip0_81_1075)">
<path d="M1.12352 12.2815C0.638191 12.9708 0.00819111 13.7675 0.00819111 14.3335C0.00819111 14.7755 0.183785 15.1994 0.496346 15.512C0.808908 15.8245 1.23283 16.0001 1.67486 16.0001C2.11689 16.0001 2.54081 15.8245 2.85337 15.512C3.16593 15.1994 3.34152 14.7755 3.34152 14.3335C3.34152 13.8168 2.70086 12.9948 2.21352 12.2875C2.15247 12.1998 2.07123 12.128 1.97665 12.0783C1.88208 12.0286 1.77693 12.0023 1.67008 12.0017C1.56323 12.0011 1.4578 12.0262 1.36268 12.0749C1.26757 12.1236 1.18554 12.1944 1.12352 12.2815ZM1.70819 9.24279L7.48952 15.0241C8.11516 15.6483 8.9628 15.9988 9.84652 15.9988C10.7302 15.9988 11.5779 15.6483 12.2035 15.0241L15.0315 12.1955C15.6566 11.5703 16.0078 10.7225 16.0078 9.83846C16.0078 8.95441 15.6566 8.10658 15.0315 7.48146L10.2829 2.73345L9.25086 1.70012L9.81286 1.13812C9.9343 1.01239 10.0015 0.843985 9.99997 0.669187C9.99845 0.49439 9.92834 0.327181 9.80474 0.203576C9.68113 0.0799705 9.51392 0.00985787 9.33912 0.00833893C9.16433 0.00681998 8.99593 0.0740163 8.87019 0.195455L0.203524 8.86212C0.139851 8.92362 0.0890636 8.99718 0.0541239 9.07852C0.0191841 9.15986 0.00079155 9.24734 2.28882e-05 9.33586C-0.000745773 9.42437 0.0161219 9.51216 0.0496426 9.59409C0.0831633 9.67602 0.132666 9.75046 0.195261 9.81305C0.257856 9.87565 0.332292 9.92515 0.414223 9.95867C0.496154 9.99219 0.58394 10.0091 0.672459 10.0083C0.760978 10.0075 0.848458 9.98913 0.929794 9.95419C1.01113 9.91925 1.08469 9.86846 1.14619 9.80479L1.70819 9.24279ZM2.65086 8.30012L8.30819 2.64279L10.2882 4.62346L14.0882 8.42346C14.2739 8.60918 14.4213 8.82967 14.5218 9.07234C14.6224 9.31502 14.6741 9.57512 14.6741 9.83779C14.6741 10.1005 14.6224 10.3606 14.5218 10.6032C14.4213 10.8459 14.2739 11.0664 14.0882 11.2521L11.2602 14.0808C10.8847 14.4551 10.3761 14.6653 9.84586 14.6653C9.31564 14.6653 8.80704 14.4551 8.43152 14.0808L2.65086 8.30012Z" fill="black"/>
<g clip-path="url(#clip1_81_1075)">
<path d="M6.48386 10.8277C6.58583 10.8783 6.69503 10.9039 6.80823 10.9039C7.08819 10.9039 7.33912 10.7483 7.46342 10.4978C7.61263 10.1971 7.53415 9.84261 7.29536 9.62886L8.90985 7.44269C8.96445 7.4556 9.02047 7.46218 9.07765 7.46218C9.27837 7.46218 9.46333 7.38112 9.59835 7.24327L10.5939 8.00301C10.5727 8.03334 10.5533 8.0651 10.5363 8.09904C10.383 8.4078 10.4699 8.77347 10.7239 8.98503L10.2281 10.5476C10.1915 10.5418 10.1544 10.5381 10.1167 10.5381C9.83688 10.5381 9.58596 10.6936 9.46165 10.9442C9.2825 11.3054 9.43068 11.7447 9.7917 11.9238C9.89355 11.9743 10.0029 12 10.1161 12C10.396 12 10.6468 11.8445 10.7713 11.5939C10.9245 11.285 10.8377 10.9195 10.5837 10.7079L11.0795 9.14534C11.1162 9.15115 11.1532 9.15489 11.191 9.15489C11.4707 9.15489 11.7218 8.99935 11.8461 8.74882C12.0252 8.38792 11.8771 7.94841 11.516 7.76925C11.4139 7.71866 11.3047 7.69297 11.1915 7.69297C11.09 7.69297 10.9925 7.71401 10.9034 7.75209L9.78835 6.90108C9.86579 6.57736 9.71348 6.23053 9.40292 6.07628C9.3007 6.02569 9.19163 6 9.07843 6C8.79859 6 8.54766 6.15567 8.42323 6.4062C8.27905 6.69688 8.34721 7.03829 8.5678 7.25385L6.94208 9.45512C6.89845 9.44712 6.85418 9.4417 6.80913 9.4417C6.52929 9.4417 6.27837 9.5975 6.15406 9.84803C5.97478 10.2091 6.12283 10.6486 6.48386 10.8277ZM10.4241 11.422C10.3656 11.5398 10.2473 11.613 10.1156 11.613C10.0626 11.613 10.0113 11.6009 9.96312 11.5771C9.79351 11.493 9.72381 11.2863 9.80823 11.1165C9.86657 10.9988 9.98454 10.9254 10.1165 10.9254C10.1695 10.9254 10.2209 10.9377 10.2688 10.9614C10.4386 11.0455 10.5083 11.252 10.4241 11.422ZM11.3437 8.11608C11.5133 8.20037 11.583 8.40702 11.4989 8.57663C11.4405 8.69448 11.3223 8.76766 11.1905 8.76766C11.1375 8.76766 11.086 8.75553 11.0381 8.73178C10.8683 8.64762 10.7988 8.44097 10.8828 8.27123C10.9413 8.15339 11.0595 8.0802 11.1913 8.0802C11.2446 8.08007 11.2956 8.0922 11.3437 8.11608ZM8.77006 6.57852C8.82853 6.46067 8.94664 6.38749 9.07843 6.38749C9.13148 6.38749 9.18285 6.39962 9.23074 6.42337C9.40047 6.50766 9.47017 6.71431 9.38602 6.88392C9.32754 7.00176 9.20957 7.07495 9.07765 7.07495C9.0246 7.07495 8.97323 7.06282 8.92521 7.03907C8.75535 6.95491 8.68577 6.74826 8.77006 6.57852ZM6.50089 10.0201C6.55937 9.90238 6.67734 9.82906 6.80913 9.82906C6.86218 9.82906 6.91342 9.84132 6.96144 9.86507C7.13118 9.9491 7.20075 10.1558 7.11659 10.3256C7.0345 10.4908 6.82371 10.5639 6.65592 10.4808C6.48605 10.3966 6.41661 10.19 6.50089 10.0201Z" fill="black"/>
</g>
</g>
<defs>
<clipPath id="clip0_81_1075">
<rect width="16" height="16" fill="white"/>
</clipPath>
<clipPath id="clip1_81_1075">
<rect width="6" height="6" fill="white" transform="translate(6 6)"/>
</clipPath>
</defs>
</svg>
