<svg width="16" height="16" viewBox="0 0 16 16" fill="none" xmlns="http://www.w3.org/2000/svg">
<g clip-path="url(#clip0_81_1072)">
<path d="M1.12352 12.2813C0.638191 12.9707 0.00819111 13.7673 0.00819111 14.3333C0.00819111 14.7754 0.183785 15.1993 0.496346 15.5118C0.808908 15.8244 1.23283 16 1.67486 16C2.11689 16 2.54081 15.8244 2.85337 15.5118C3.16593 15.1993 3.34152 14.7754 3.34152 14.3333C3.34152 13.8167 2.70086 12.9947 2.21352 12.2873C2.15247 12.1996 2.07123 12.1279 1.97665 12.0782C1.88208 12.0285 1.77693 12.0022 1.67008 12.0016C1.56323 12.001 1.4578 12.0261 1.36268 12.0748C1.26757 12.1235 1.18554 12.1943 1.12352 12.2813ZM1.70819 9.24267L7.48952 15.024C8.11516 15.6481 8.9628 15.9986 9.84652 15.9986C10.7302 15.9986 11.5779 15.6481 12.2035 15.024L15.0315 12.1953C15.6566 11.5702 16.0078 10.7224 16.0078 9.83833C16.0078 8.95429 15.6566 8.10645 15.0315 7.48133L10.2829 2.73333L9.25086 1.7L9.81286 1.138C9.9343 1.01226 10.0015 0.843863 9.99997 0.669065C9.99845 0.494268 9.92834 0.327059 9.80474 0.203454C9.68113 0.0798484 9.51392 0.0097358 9.33912 0.00821686C9.16433 0.00669791 8.99593 0.0738942 8.87019 0.195333L0.203524 8.862C0.139851 8.9235 0.0890636 8.99706 0.0541239 9.0784C0.0191841 9.15973 0.00079155 9.24721 2.28882e-05 9.33573C-0.000745773 9.42425 0.0161219 9.51204 0.0496426 9.59397C0.0831633 9.6759 0.132666 9.75033 0.195261 9.81293C0.257856 9.87553 0.332292 9.92503 0.414223 9.95855C0.496154 9.99207 0.58394 10.0089 0.672459 10.0082C0.760978 10.0074 0.848458 9.98901 0.929794 9.95407C1.01113 9.91913 1.08469 9.86834 1.14619 9.80467L1.70819 9.24267ZM2.65086 8.3L8.30819 2.64267L10.2882 4.62333L14.0882 8.42333C14.2739 8.60906 14.4213 8.82955 14.5218 9.07222C14.6224 9.31489 14.6741 9.575 14.6741 9.83767C14.6741 10.1003 14.6224 10.3604 14.5218 10.6031C14.4213 10.8458 14.2739 11.0663 14.0882 11.252L11.2602 14.0807C10.8847 14.455 10.3761 14.6652 9.84586 14.6652C9.31564 14.6652 8.80704 14.455 8.43152 14.0807L2.65086 8.3Z" fill="black"/>
<path d="M7.12 8.588C7.412 8.588 7.63 8.524 7.774 8.396C7.922 8.264 7.996 8.096 7.996 7.892V7.85C7.996 7.626 7.924 7.458 7.78 7.346C7.64 7.234 7.456 7.178 7.228 7.178C7.004 7.178 6.822 7.228 6.682 7.328C6.546 7.424 6.434 7.552 6.346 7.712L5.968 7.424C6.02 7.34 6.084 7.258 6.16 7.178C6.236 7.094 6.324 7.02 6.424 6.956C6.528 6.892 6.646 6.84 6.778 6.8C6.914 6.76 7.068 6.74 7.24 6.74C7.42 6.74 7.588 6.764 7.744 6.812C7.9 6.856 8.036 6.924 8.152 7.016C8.268 7.104 8.358 7.214 8.422 7.346C8.49 7.478 8.524 7.628 8.524 7.796C8.524 7.932 8.502 8.054 8.458 8.162C8.418 8.27 8.36 8.364 8.284 8.444C8.212 8.524 8.126 8.592 8.026 8.648C7.926 8.704 7.82 8.746 7.708 8.774V8.798C7.824 8.822 7.936 8.862 8.044 8.918C8.152 8.97 8.248 9.04 8.332 9.128C8.416 9.212 8.482 9.316 8.53 9.44C8.582 9.56 8.608 9.698 8.608 9.854C8.608 10.034 8.572 10.2 8.5 10.352C8.432 10.5 8.334 10.628 8.206 10.736C8.082 10.84 7.93 10.922 7.75 10.982C7.574 11.042 7.378 11.072 7.162 11.072C6.978 11.072 6.814 11.052 6.67 11.012C6.53 10.972 6.404 10.918 6.292 10.85C6.184 10.782 6.088 10.706 6.004 10.622C5.924 10.538 5.852 10.45 5.788 10.358L6.166 10.07C6.222 10.154 6.28 10.23 6.34 10.298C6.4 10.366 6.468 10.426 6.544 10.478C6.624 10.526 6.714 10.564 6.814 10.592C6.914 10.62 7.03 10.634 7.162 10.634C7.458 10.634 7.684 10.566 7.84 10.43C8 10.294 8.08 10.1 8.08 9.848V9.8C8.08 9.552 8.002 9.36 7.846 9.224C7.694 9.088 7.464 9.02 7.156 9.02H6.658V8.588H7.12ZM9.66766 6.812H10.8377C11.3497 6.812 11.7317 6.988 11.9837 7.34C12.2357 7.692 12.3617 8.214 12.3617 8.906C12.3617 9.598 12.2357 10.12 11.9837 10.472C11.7317 10.824 11.3497 11 10.8377 11H9.66766V6.812ZM10.8137 10.562C11.1497 10.562 11.4017 10.446 11.5697 10.214C11.7417 9.982 11.8277 9.654 11.8277 9.23V8.582C11.8277 8.158 11.7417 7.83 11.5697 7.598C11.4017 7.366 11.1497 7.25 10.8137 7.25H10.1717V10.562H10.8137Z" fill="black"/>
</g>
<defs>
<clipPath id="clip0_81_1072">
<rect width="16" height="16" fill="white"/>
</clipPath>
</defs>
</svg>
