<svg width="16" height="16" viewBox="0 0 16 16" fill="none" xmlns="http://www.w3.org/2000/svg">
<g clip-path="url(#clip0_81_1075)">
<path d="M1.12352 12.2815C0.638191 12.9708 0.00819111 13.7675 0.00819111 14.3335C0.00819111 14.7755 0.183785 15.1994 0.496346 15.512C0.808908 15.8245 1.23283 16.0001 1.67486 16.0001C2.11689 16.0001 2.54081 15.8245 2.85337 15.512C3.16593 15.1994 3.34152 14.7755 3.34152 14.3335C3.34152 13.8168 2.70086 12.9948 2.21352 12.2875C2.15247 12.1998 2.07123 12.128 1.97665 12.0783C1.88208 12.0286 1.77693 12.0023 1.67008 12.0017C1.56323 12.0011 1.4578 12.0262 1.36268 12.0749C1.26757 12.1236 1.18554 12.1944 1.12352 12.2815ZM1.70819 9.24279L7.48952 15.0241C8.11516 15.6483 8.9628 15.9988 9.84652 15.9988C10.7302 15.9988 11.5779 15.6483 12.2035 15.0241L15.0315 12.1955C15.6566 11.5703 16.0078 10.7225 16.0078 9.83846C16.0078 8.95441 15.6566 8.10658 15.0315 7.48146L10.2829 2.73345L9.25086 1.70012L9.81286 1.13812C9.9343 1.01239 10.0015 0.843985 9.99997 0.669187C9.99845 0.49439 9.92834 0.327181 9.80474 0.203576C9.68113 0.0799705 9.51392 0.00985787 9.33912 0.00833893C9.16433 0.00681998 8.99593 0.0740163 8.87019 0.195455L0.203524 8.86212C0.139851 8.92362 0.0890636 8.99718 0.0541239 9.07852C0.0191841 9.15986 0.00079155 9.24734 2.28882e-05 9.33586C-0.000745773 9.42437 0.0161219 9.51216 0.0496426 9.59409C0.0831633 9.67602 0.132666 9.75046 0.195261 9.81305C0.257856 9.87565 0.332292 9.92515 0.414223 9.95867C0.496154 9.99219 0.58394 10.0091 0.672459 10.0083C0.760978 10.0075 0.848458 9.98913 0.929794 9.95419C1.01113 9.91925 1.08469 9.86846 1.14619 9.80479L1.70819 9.24279ZM2.65086 8.30012L8.30819 2.64279L10.2882 4.62346L14.0882 8.42346C14.2739 8.60918 14.4213 8.82967 14.5218 9.07234C14.6224 9.31502 14.6741 9.57512 14.6741 9.83779C14.6741 10.1005 14.6224 10.3606 14.5218 10.6032C14.4213 10.8459 14.2739 11.0664 14.0882 11.2521L11.2602 14.0808C10.8847 14.4551 10.3761 14.6653 9.84586 14.6653C9.31564 14.6653 8.80704 14.4551 8.43152 14.0808L2.65086 8.30012Z" fill="black"/>
</g>
<defs>
<clipPath id="clip0_81_1075">
<rect width="16" height="16" fill="white"/>
</clipPath>
</defs>
</svg>
