<svg width="16" height="16" viewBox="0 0 16 16" fill="none" xmlns="http://www.w3.org/2000/svg">
<g clip-path="url(#clip0_81_1083)">
<path fill-rule="evenodd" clip-rule="evenodd" d="M14.1334 6C13.6731 6 13.3 6.37309 13.3 6.83333C13.3 7.29357 13.6731 7.66667 14.1334 7.66667C14.5936 7.66667 14.9667 7.29357 14.9667 6.83333C14.9667 6.37309 14.5936 6 14.1334 6ZM12.3 6.83333C12.3 5.82081 13.1208 5 14.1334 5C15.1459 5 15.9667 5.82081 15.9667 6.83333C15.9667 7.84585 15.1459 8.66667 14.1334 8.66667C13.1208 8.66667 12.3 7.84585 12.3 6.83333Z" fill="black"/>
<path fill-rule="evenodd" clip-rule="evenodd" d="M11.5333 13.3C11.073 13.3 10.7 13.6731 10.7 14.1334C10.7 14.5936 11.073 14.9667 11.5333 14.9667C11.9936 14.9667 12.3666 14.5936 12.3666 14.1334C12.3666 13.6731 11.9936 13.3 11.5333 13.3ZM9.69995 14.1334C9.69995 13.1209 10.5208 12.3 11.5333 12.3C12.5458 12.3 13.3666 13.1209 13.3666 14.1334C13.3666 15.1459 12.5458 15.9667 11.5333 15.9667C10.5208 15.9667 9.69995 15.1459 9.69995 14.1334Z" fill="black"/>
<path fill-rule="evenodd" clip-rule="evenodd" d="M1.83333 6C1.37307 6 1 6.37309 1 6.83333C1 7.29357 1.37307 7.66667 1.83333 7.66667C2.2936 7.66667 2.66667 7.29357 2.66667 6.83333C2.66667 6.37309 2.2936 6 1.83333 6ZM0 6.83333C0 5.82081 0.8208 5 1.83333 5C2.84587 5 3.66667 5.82081 3.66667 6.83333C3.66667 7.84585 2.84587 8.66667 1.83333 8.66667C0.8208 8.66667 0 7.84585 0 6.83333Z" fill="black"/>
<path fill-rule="evenodd" clip-rule="evenodd" d="M7.93343 1C7.47316 1 7.1001 1.37309 7.1001 1.83333C7.1001 2.29357 7.47316 2.66667 7.93343 2.66667C8.3937 2.66667 8.76676 2.29357 8.76676 1.83333C8.76676 1.37309 8.3937 1 7.93343 1ZM6.1001 1.83333C6.1001 0.820813 6.9209 0 7.93343 0C8.94596 0 9.76676 0.820813 9.76676 1.83333C9.76676 2.84585 8.94596 3.66667 7.93343 3.66667C6.9209 3.66667 6.1001 2.84585 6.1001 1.83333Z" fill="black"/>
<path fill-rule="evenodd" clip-rule="evenodd" d="M4.13338 13.3C3.67312 13.3 3.30005 13.6731 3.30005 14.1334C3.30005 14.5936 3.67312 14.9667 4.13338 14.9667C4.59365 14.9667 4.96672 14.5936 4.96672 14.1334C4.96672 13.6731 4.59365 13.3 4.13338 13.3ZM2.30005 14.1334C2.30005 13.1209 3.12085 12.3 4.13338 12.3C5.14592 12.3 5.96672 13.1209 5.96672 14.1334C5.96672 15.1459 5.14592 15.9667 4.13338 15.9667C3.12085 15.9667 2.30005 15.1459 2.30005 14.1334Z" fill="black"/>
</g>
<defs>
<clipPath id="clip0_81_1083">
<rect width="16" height="16" fill="white"/>
</clipPath>
</defs>
</svg>
