<svg width="16" height="16" viewBox="0 0 16 16" fill="none" xmlns="http://www.w3.org/2000/svg">
<g clip-path="url(#clip0_79_1034)">
<path d="M15.1628 8L14.5499 6.31784H15.1327V3.23015H13.425L12.64 1.07535H9.54398V0H6.45629V1.07535H3.36026L2.57519 3.23015H0.867543V6.31784H1.45027L0.837402 8L1.45027 9.68216H0.867543V12.7699H2.57519L3.36026 14.9246H6.45625V16H9.54394V14.9246H12.6399L13.425 12.7699H15.1327V9.68216H14.5499L15.1628 8ZM14.1956 5.38082H12.982V4.16716H14.1956V5.38082ZM7.39327 0.937017H8.60693V2.15067H7.39327V0.937017ZM1.80456 4.16713H3.01825V5.38079H1.80456V4.16713ZM1.80456 10.6192H3.01825V11.8328H1.80456V10.6192ZM8.60696 15.063H7.3933V13.8493H8.60696V15.063ZM11.9841 13.9876H9.54398V12.9123H6.45629V13.9876H4.01617L3.57249 12.7699H3.95523V9.68216H2.44757L1.8347 8L2.44757 6.31784H3.95526V3.23015H3.57252L4.0162 2.01237H6.45629V3.08772H9.54398V2.01237H11.9841L12.4277 3.23015H12.045V6.31784H13.5527L14.1655 8L13.5527 9.68216H12.045V12.7699H12.4277L11.9841 13.9876ZM14.1956 11.8328H12.982V10.6192H14.1956V11.8328Z" fill="black"/>
</g>
<defs>
<clipPath id="clip0_79_1034">
<rect width="16" height="16" fill="white"/>
</clipPath>
</defs>
</svg>
