<svg width="16" height="16" viewBox="0 0 16 16" fill="none" xmlns="http://www.w3.org/2000/svg">
<g clip-path="url(#clip0_7_503)">
<path d="M12.77 3.73004H12.7925L10.415 1.35254C10.329 1.25727 10.2829 1.13258 10.2863 1.00427C10.2897 0.875966 10.3423 0.753875 10.4332 0.663278C10.5241 0.57268 10.6464 0.520517 10.7747 0.517586C10.903 0.514656 11.0276 0.561185 11.1225 0.647537L14.3525 3.87754C14.4124 3.93451 14.4572 4.00544 14.4829 4.08397C14.5087 4.1625 14.5146 4.24618 14.5 4.32754C14.478 4.42192 14.4305 4.50842 14.3625 4.57754L11.1225 7.81504C11.0292 7.90893 10.9024 7.96198 10.77 7.96254C10.6707 7.96311 10.5735 7.9341 10.4907 7.8792C10.408 7.8243 10.3434 7.746 10.3054 7.65428C10.2673 7.56256 10.2574 7.46157 10.2769 7.3642C10.2964 7.26682 10.3445 7.17747 10.415 7.10754L12.7925 4.73004C10.0659 4.72738 7.44981 5.80783 5.51966 7.73376C3.58952 9.65968 2.50335 12.2734 2.50004 15C2.50004 15.1326 2.44736 15.2598 2.35359 15.3536C2.25982 15.4474 2.13265 15.5 2.00004 15.5C1.86743 15.5 1.74025 15.4474 1.64648 15.3536C1.55272 15.2598 1.50004 15.1326 1.50004 15C1.50335 12.0121 2.69178 9.14742 4.8046 7.0346C6.91742 4.92178 9.78206 3.73335 12.77 3.73004Z" fill="black"/>
</g>
<defs>
<clipPath id="clip0_7_503">
<rect width="16" height="16" fill="white" transform="matrix(-1 0 0 1 16 0)"/>
</clipPath>
</defs>
</svg>
