<svg width="16" height="16" viewBox="0 0 16 16" fill="none" xmlns="http://www.w3.org/2000/svg">
<g clip-path="url(#clip0_79_1056)">
<path d="M15.1901 3.55996C15.0713 3.30749 14.901 3.08268 14.6901 2.89996L12.9101 1.11996C12.6441 0.856156 12.2847 0.70813 11.9101 0.70813C11.5355 0.70813 11.1761 0.856156 10.9101 1.11996L6.0001 5.99996L1.1201 10.95C0.985823 11.0796 0.879028 11.235 0.806088 11.4068C0.733148 11.5786 0.695557 11.7633 0.695557 11.95C0.695557 12.1366 0.733148 12.3214 0.806088 12.4932C0.879028 12.665 0.985823 12.8203 1.1201 12.95L3.1201 14.95C3.24974 15.0842 3.4051 15.191 3.57691 15.264C3.74872 15.3369 3.93345 15.3745 4.1201 15.3745C4.30675 15.3745 4.49149 15.3369 4.6633 15.264C4.8351 15.191 4.99046 15.0842 5.1201 14.95L14.9501 5.11996C15.1411 4.91353 15.2661 4.65468 15.3088 4.37669C15.3516 4.0987 15.3103 3.81427 15.1901 3.55996ZM14.1301 4.39996L4.3401 14.17C4.26582 14.2403 4.1674 14.2795 4.0651 14.2795C3.9628 14.2795 3.86439 14.2403 3.7901 14.17L1.7901 12.17C1.74892 12.1316 1.71607 12.0852 1.69361 12.0335C1.67116 11.9819 1.65957 11.9262 1.65957 11.87C1.65957 11.8137 1.67116 11.758 1.69361 11.7064C1.71607 11.6548 1.74892 11.6083 1.7901 11.57L2.6001 10.76L3.6001 11.76C3.69426 11.8541 3.82195 11.907 3.9551 11.907C4.08825 11.907 4.21595 11.8541 4.3101 11.76C4.40426 11.6658 4.45715 11.5381 4.45715 11.405C4.45715 11.2718 4.40426 11.1441 4.3101 11.05L3.3101 10.05L4.5301 8.94996L5.1301 9.54996C5.22426 9.64411 5.35195 9.69701 5.4851 9.69701C5.61825 9.69701 5.74595 9.64411 5.8401 9.54996C5.93426 9.45581 5.98715 9.32811 5.98715 9.19496C5.98715 9.06181 5.93426 8.93411 5.8401 8.83996L5.2401 8.23996L6.3801 7.09996L7.3801 8.09996C7.47426 8.19412 7.60195 8.24701 7.7351 8.24701C7.86825 8.24701 7.99595 8.19412 8.0901 8.09996C8.18426 8.00581 8.23715 7.87811 8.23715 7.74496C8.23715 7.61181 8.18426 7.48412 8.0901 7.38996L7.0901 6.38996L8.2201 5.25996L8.8201 5.85996C8.86672 5.90658 8.92207 5.94356 8.98298 5.96879C9.04389 5.99402 9.10917 6.00701 9.1751 6.00701C9.24103 6.00701 9.30632 5.99402 9.36723 5.96879C9.42814 5.94356 9.48348 5.90658 9.5301 5.85996C9.57672 5.81334 9.6137 5.758 9.63893 5.69709C9.66416 5.63618 9.67715 5.57089 9.67715 5.50496C9.67715 5.43903 9.66416 5.37375 9.63893 5.31284C9.6137 5.25193 9.57672 5.19658 9.5301 5.14996L8.9301 4.54996L10.0701 3.40996L11.0701 4.40996C11.1167 4.45658 11.1721 4.49356 11.233 4.51879C11.2939 4.54402 11.3592 4.55701 11.4251 4.55701C11.491 4.55701 11.5563 4.54402 11.6172 4.51879C11.6781 4.49356 11.7335 4.45658 11.7801 4.40996C11.8267 4.36334 11.8637 4.308 11.8889 4.24709C11.9142 4.18618 11.9271 4.12089 11.9271 4.05496C11.9271 3.98903 11.9142 3.92375 11.8889 3.86284C11.8637 3.80193 11.8267 3.74658 11.7801 3.69996L10.7801 2.69996L11.6601 1.81996C11.7344 1.74963 11.8328 1.71044 11.9351 1.71044C12.0374 1.71044 12.1358 1.74963 12.2101 1.81996L14.2101 3.81996C14.2432 3.86228 14.2674 3.91083 14.2813 3.96271C14.2953 4.0146 14.2986 4.06875 14.2911 4.12195C14.2836 4.17514 14.2655 4.22629 14.2379 4.27234C14.2102 4.31839 14.1736 4.35839 14.1301 4.38996V4.39996Z" fill="black"/>
</g>
<defs>
<clipPath id="clip0_79_1056">
<rect width="16" height="16" fill="white"/>
</clipPath>
</defs>
</svg>
