<svg width="16" height="16" viewBox="0 0 16 16" fill="none" xmlns="http://www.w3.org/2000/svg">
<g clip-path="url(#clip0_7_537)">
<path d="M7.99993 0.00012207C7.80793 0.00012207 7.6521 0.155956 7.6521 0.347952V15.652C7.6521 15.844 7.80793 15.9998 7.99993 15.9998C8.19193 15.9998 8.34776 15.844 8.34776 15.652V0.347952C8.34773 0.155956 8.19193 0.00012207 7.99993 0.00012207Z" fill="black"/>
<path d="M15.6521 7.65222H0.348074C0.156078 7.65222 0.000244141 7.80806 0.000244141 8.00005C0.000244141 8.19205 0.156078 8.34788 0.348074 8.34788H15.6521C15.8441 8.34788 15.9999 8.19205 15.9999 8.00005C15.9999 7.80806 15.8441 7.65222 15.6521 7.65222Z" fill="black"/>
<path d="M10.3333 2.18938L8.24639 0.102469C8.11075 -0.0331799 7.89022 -0.0331799 7.75457 0.102469L5.66765 2.18938C5.53201 2.32503 5.53201 2.54556 5.66765 2.68121C5.8033 2.81686 6.02383 2.81686 6.15948 2.68121L8.00014 0.839867L9.8408 2.68121C9.90898 2.74867 9.998 2.78278 10.0871 2.78278C10.1761 2.78278 10.2651 2.74871 10.3333 2.68121C10.469 2.54556 10.469 2.32503 10.3333 2.18938Z" fill="black"/>
<path d="M10.3326 13.3195C10.1969 13.1839 9.9764 13.1839 9.84075 13.3195L8.00009 15.1602L6.15875 13.3195C6.0231 13.1839 5.80257 13.1839 5.66692 13.3195C5.53127 13.4552 5.53127 13.6757 5.66692 13.8113L7.75384 15.8983C7.82202 15.9657 7.91104 15.9998 8.00009 15.9998C8.08914 15.9998 8.17816 15.9657 8.24566 15.8983L10.3326 13.8113C10.4682 13.6757 10.4682 13.4552 10.3326 13.3195Z" fill="black"/>
<path d="M15.8982 7.75445L13.8113 5.66753C13.6756 5.53188 13.4551 5.53188 13.3195 5.66753C13.1838 5.80318 13.1838 6.02371 13.3195 6.15936L15.1601 8.00002L13.3188 9.84136C13.1831 9.97701 13.1831 10.1975 13.3188 10.3332C13.387 10.4006 13.476 10.4348 13.565 10.4348C13.6541 10.4348 13.7431 10.4007 13.8113 10.3332L15.8982 8.24627C16.0339 8.11062 16.0339 7.89009 15.8982 7.75445Z" fill="black"/>
<path d="M0.839819 8.00002L2.68048 6.15936C2.81613 6.02371 2.81613 5.80318 2.68048 5.66753C2.54483 5.53188 2.3243 5.53188 2.18865 5.66753L0.101737 7.75445C-0.0339123 7.89009 -0.0339123 8.11062 0.101737 8.24627L2.18865 10.3332C2.25683 10.4006 2.34585 10.4348 2.43491 10.4348C2.52396 10.4348 2.61298 10.4007 2.68048 10.3325C2.81613 10.1968 2.81613 9.97632 2.68048 9.84067L0.839819 8.00002Z" fill="black"/>
</g>
<defs>
<clipPath id="clip0_7_537">
<rect width="16" height="16" fill="white"/>
</clipPath>
</defs>
</svg>
